<?xml version="1.0" encoding="UTF-8"?>
<svg id="Ebene_1" data-name="Ebene 1" xmlns="http://www.w3.org/2000/svg" viewBox="0 0 1920 1080">
  <defs>
    <style>
      .cls-1 {
        stroke-width: 30px;
      }

      .cls-1, .cls-2, .cls-3 {
        fill: none;
        stroke: #000;
        stroke-miterlimit: 10;
      }

      .cls-2 {
        stroke-width: 50px;
      }

      .cls-3 {
        stroke-width: 40px;
      }
    </style>
  </defs>
  <path class="cls-1" d="M-143,297c35,56,380.48,324.94,582,253,225.5-80.5,133-454,24-604"/>
  <path class="cls-2" d="M1121.5-153.5c-84,115-232.1,362.9-118,528,170,246,401.88-67.23,427,91,20,126-151,278,102,494s896-230,896-230"/>
  <path class="cls-1" d="M1401-168c-84,115-320.1,233.9-206,399,170,246,443.84-138.99,468.95,19.23,20,126,69.05,416.77,213.05,478.77,168.01,72.34,387-493,387-493"/>
  <path class="cls-2" d="M-94,900c157-205,252-234,317-230s84,219,280,188,149-356,340-269,76,200,158,283,191-87,290,47,52,360,52,360"/>
  <path class="cls-3" d="M-80,1092c127-45,374-148,644-131s600.44,281.1,600.44,281.1"/>
  <path class="cls-2" d="M-119-34C-84,22,171.64,474.24,370,394c178-72-76-556-185-706"/>
</svg>